<svg xmlns="http://www.w3.org/2000/svg" viewBox="0 0 216.42 163.75"><defs><style>.cls-1{fill:#bd191a;}.cls-2{fill:#edeeef;}.cls-3{fill:#1f1b25;}.cls-4{fill:#fff;}</style></defs><g id="Calque_2" data-name="Calque 2"><g id="Calque_1-2" data-name="Calque 1"><rect class="cls-1" x="37.52" y="0.71" width="65.6" height="65.6"/><polygon class="cls-2" points="103.03 0.71 103.03 66.32 37.61 66.32 70.32 33.51 103.03 0.71"/><polygon class="cls-3" points="55.05 48.78 55.05 15.98 87.76 15.98 71.41 32.38 55.05 48.78"/><rect class="cls-1" x="77.95" y="27.3" width="13.11" height="38.53" transform="translate(-8.18 73.39) rotate(-45)"/><polygon class="cls-3" points="37.54 17.11 37.54 0.71 53.9 0.71 45.72 8.91 37.54 17.11"/><rect class="cls-1" x="37.52" y="98.15" width="65.6" height="65.6" transform="translate(-60.63 201.27) rotate(-90)"/><polygon class="cls-3" points="37.52 98.24 103.12 98.24 103.12 163.66 70.32 130.95 37.52 98.24"/><polygon class="cls-4" points="86.72 147.3 53.92 147.3 53.92 114.59 70.32 130.95 86.72 147.3"/><rect class="cls-1" x="77.35" y="97.15" width="13.11" height="39.26" transform="translate(60.66 258.68) rotate(-135)"/><polygon class="cls-4" points="53.92 163.75 37.52 163.75 37.52 147.4 45.72 155.57 53.92 163.75"/><rect class="cls-1" x="118.06" width="65.6" height="65.6" transform="translate(183.67 -118.06) rotate(90)"/><polygon class="cls-3" points="183.67 65.51 118.06 65.51 118.06 0.09 150.86 32.8 183.67 65.51"/><polygon class="cls-4" points="135.3 17.16 168.11 17.16 168.11 49.87 151.71 33.51 135.3 17.16"/><rect class="cls-1" x="131.26" y="27.73" width="13.11" height="38.53" transform="translate(73.59 -83.68) rotate(45)"/><polygon class="cls-4" points="167.27 0.09 183.67 0.09 183.67 16.45 175.47 8.27 167.27 0.09"/><rect class="cls-1" x="119.18" y="98.15" width="65.6" height="65.6" transform="translate(303.96 261.9) rotate(180)"/><polygon class="cls-2" points="119.27 163.75 119.27 98.15 184.69 98.15 151.98 130.95 119.27 163.75"/><polygon class="cls-3" points="167.22 115.68 167.22 148.48 134.51 148.48 150.86 132.08 167.22 115.68"/><rect class="cls-1" x="131.24" y="98.63" width="13.11" height="38.53" transform="translate(318.59 103.83) rotate(135)"/><polygon class="cls-3" points="184.76 147.35 184.76 163.75 168.4 163.75 176.58 155.55 184.76 147.35"/><path class="cls-1" d="M9.45,89.24A23.36,23.36,0,0,1,5.74,89a18.62,18.62,0,0,1-3.23-.79A15.6,15.6,0,0,1,0,87L2.84,81.6a15.88,15.88,0,0,0,2.45,1.14,14.06,14.06,0,0,0,2.46.67,13.61,13.61,0,0,0,2.45.22,6.53,6.53,0,0,0,1.6-.16,2.14,2.14,0,0,0,1-.45.89.89,0,0,0,.33-.67.93.93,0,0,0-.56-.81A6.4,6.4,0,0,0,11.05,81c-.61-.17-1.28-.34-2-.52a17.73,17.73,0,0,1-2.23-.68,8.62,8.62,0,0,1-2-1.08,5,5,0,0,1-1.49-1.65,5,5,0,0,1-.56-2.43A7.19,7.19,0,0,1,4,70.28a8.49,8.49,0,0,1,3.8-2.85,15.52,15.52,0,0,1,5.91-1,20.4,20.4,0,0,1,4.54.48,12.43,12.43,0,0,1,3.63,1.39l-2.65,5.36a10.35,10.35,0,0,0-2.85-1.22,12.35,12.35,0,0,0-3.14-.4,6.8,6.8,0,0,0-1.77.2,2.6,2.6,0,0,0-1.08.55,1,1,0,0,0-.36.71,1,1,0,0,0,.56.83,5.69,5.69,0,0,0,1.5.56l2,.5q1.11.27,2.22.66a9.05,9.05,0,0,1,2,1,5,5,0,0,1,1.5,1.63,4.83,4.83,0,0,1,.56,2.41,7,7,0,0,1-1.34,4.26,8.74,8.74,0,0,1-3.82,2.85A15.26,15.26,0,0,1,9.45,89.24Z"/><path class="cls-1" d="M31.21,89.05a11.75,11.75,0,0,1-4.91-1A7.76,7.76,0,0,1,23,85.34a7.32,7.32,0,0,1-1.18-4.17,9.72,9.72,0,0,1,1.31-5,9.27,9.27,0,0,1,3.69-3.49,11.65,11.65,0,0,1,5.57-1.28,10.44,10.44,0,0,1,4.68,1A7.08,7.08,0,0,1,40,75a7.28,7.28,0,0,1,1,3.9A11,11,0,0,1,41,80.42c-.07.5-.16,1-.27,1.43H27.44l.66-3.4h9.35l-2.93.91a2.78,2.78,0,0,0,0-1.7,2.11,2.11,0,0,0-.88-1.09,2.85,2.85,0,0,0-1.53-.39,2.88,2.88,0,0,0-2,.68A3.78,3.78,0,0,0,29,78.64a7.86,7.86,0,0,0-.33,2.28,2.68,2.68,0,0,0,.86,2.26,4,4,0,0,0,2.51.67,6.52,6.52,0,0,0,1.93-.3,6,6,0,0,0,1.78-.89l2.93,4.27A11.39,11.39,0,0,1,35,88.59,16,16,0,0,1,31.21,89.05Z"/><path class="cls-1" d="M51.3,89.05a11.34,11.34,0,0,1-4.9-1,7.58,7.58,0,0,1-3.24-2.76A7.41,7.41,0,0,1,42,81.17a9.31,9.31,0,0,1,1.38-5,9.64,9.64,0,0,1,3.8-3.49,11.83,11.83,0,0,1,5.58-1.28,10.15,10.15,0,0,1,5.3,1.34,7.25,7.25,0,0,1,3.15,3.65l-6,2.75a3.4,3.4,0,0,0-1.17-1.69,2.88,2.88,0,0,0-1.64-.5,3,3,0,0,0-1.68.49,3.26,3.26,0,0,0-1.17,1.32,4.44,4.44,0,0,0-.42,2,2.88,2.88,0,0,0,.68,2,2.52,2.52,0,0,0,2,.78A3.32,3.32,0,0,0,53.64,83,4.22,4.22,0,0,0,55,81.32l5.14,3a8.71,8.71,0,0,1-3.54,3.5A10.93,10.93,0,0,1,51.3,89.05Z"/><path class="cls-1" d="M67.73,89.05a7,7,0,0,1-3.57-.88A5,5,0,0,1,62,85.52a8.28,8.28,0,0,1-.11-4.42l1.87-9.41h7L69.1,80.26a3.24,3.24,0,0,0,.13,2.14,1.52,1.52,0,0,0,1.46.73,2.69,2.69,0,0,0,2-.8,4.59,4.59,0,0,0,1.11-2.44l1.65-8.2h7l-3.4,17H72.44l1-4.77.81,1.31a7.61,7.61,0,0,1-6.49,3.77Z"/><path class="cls-1" d="M82.17,88.74l3.4-17h6.64l-1,4.83-.65-1.37a6.27,6.27,0,0,1,3-2.9,10,10,0,0,1,4.31-.88l-1.24,6.24-.8-.09c-.24,0-.48,0-.73,0a4.69,4.69,0,0,0-2.82.78,4,4,0,0,0-1.45,2.58l-1.59,7.89Z"/><path class="cls-1" d="M106.4,89.05a11.72,11.72,0,0,1-4.91-1,7.7,7.7,0,0,1-3.29-2.75A7.32,7.32,0,0,1,97,81.17a9.72,9.72,0,0,1,1.31-5,9.37,9.37,0,0,1,3.7-3.49,11.61,11.61,0,0,1,5.56-1.28,10.44,10.44,0,0,1,4.68,1,7,7,0,0,1,3,2.65,7.28,7.28,0,0,1,1,3.9,9.67,9.67,0,0,1-.11,1.53c-.07.5-.16,1-.26,1.43H102.63l.65-3.4h9.36l-2.94.91a2.79,2.79,0,0,0,0-1.7,2.13,2.13,0,0,0-.89-1.09,3.28,3.28,0,0,0-3.55.29,3.88,3.88,0,0,0-1.08,1.78,7.86,7.86,0,0,0-.33,2.28,2.71,2.71,0,0,0,.86,2.26,4.06,4.06,0,0,0,2.51.67,6.47,6.47,0,0,0,1.93-.3,5.83,5.83,0,0,0,1.78-.89l2.93,4.27a11.19,11.19,0,0,1-3.63,1.66A15.91,15.91,0,0,1,106.4,89.05Z"/><path class="cls-3" d="M126,88.74l4.37-21.83h7.36L134.53,83h9.85l-1.15,5.7Z"/><path class="cls-3" d="M155.2,89.05a11.72,11.72,0,0,1-4.91-1A7.76,7.76,0,0,1,147,85.34a7.32,7.32,0,0,1-1.19-4.17,9.72,9.72,0,0,1,1.31-5,9.37,9.37,0,0,1,3.7-3.49,11.65,11.65,0,0,1,5.57-1.28,10.4,10.4,0,0,1,4.67,1A7.11,7.11,0,0,1,164,75a7.37,7.37,0,0,1,1,3.9,11,11,0,0,1-.11,1.53c-.08.5-.16,1-.27,1.43H151.43l.65-3.4h9.36l-2.93.91a2.86,2.86,0,0,0,0-1.7,2.13,2.13,0,0,0-.89-1.09,2.8,2.8,0,0,0-1.53-.39,2.86,2.86,0,0,0-2,.68A3.88,3.88,0,0,0,153,78.64a7.86,7.86,0,0,0-.33,2.28,2.71,2.71,0,0,0,.86,2.26,4.06,4.06,0,0,0,2.51.67,6.54,6.54,0,0,0,1.94-.3,5.89,5.89,0,0,0,1.77-.89l2.93,4.27A11.19,11.19,0,0,1,159,88.59,15.91,15.91,0,0,1,155.2,89.05Z"/><path class="cls-3" d="M169.8,88.74l-3.47-17h7l2.56,13.87H172.2l8.2-13.87h6.95l-10.26,17Z"/><path class="cls-3" d="M194.71,89.05a11.72,11.72,0,0,1-4.91-1,7.76,7.76,0,0,1-3.29-2.75,7.32,7.32,0,0,1-1.18-4.17,9.63,9.63,0,0,1,1.31-5,9.27,9.27,0,0,1,3.69-3.49,11.65,11.65,0,0,1,5.57-1.28,10.37,10.37,0,0,1,4.67,1,7.11,7.11,0,0,1,3,2.65,7.37,7.37,0,0,1,1,3.9,11,11,0,0,1-.11,1.53c-.08.5-.16,1-.27,1.43H190.94l.65-3.4H201l-2.93.91a2.86,2.86,0,0,0,0-1.7,2.13,2.13,0,0,0-.89-1.09,2.8,2.8,0,0,0-1.53-.39,2.86,2.86,0,0,0-2,.68,3.88,3.88,0,0,0-1.08,1.78,7.86,7.86,0,0,0-.33,2.28,2.71,2.71,0,0,0,.86,2.26,4.06,4.06,0,0,0,2.51.67,6.54,6.54,0,0,0,1.94-.3,5.89,5.89,0,0,0,1.77-.89l2.93,4.27a11.19,11.19,0,0,1-3.63,1.66A15.91,15.91,0,0,1,194.71,89.05Z"/><path class="cls-3" d="M204.75,88.74l4.62-23.14h7L211.8,88.74Z"/></g></g></svg>